<svg width="185" height="36" viewBox="0 0 185 36" fill="none" xmlns="http://www.w3.org/2000/svg">
  <ellipse cx="170.229" cy="13.4478" rx="10.2285" ry="10.4478" fill="#2F9C75"/>
  <path d="M168.218 16.7127L168.199 13.7369L166.823 16.125H165.881L164.504 13.8396V16.7127H162.557V10.1828H164.314L166.379 13.6623L168.39 10.1828H170.147L170.165 16.7127H168.218Z" fill="white"/>
  <path d="M171.198 10.1828H174.323C175.029 10.1828 175.651 10.3165 176.188 10.584C176.732 10.8452 177.151 11.2214 177.447 11.7127C177.749 12.204 177.9 12.7823 177.9 13.4478C177.9 14.1132 177.749 14.6915 177.447 15.1828C177.151 15.6741 176.732 16.0535 176.188 16.3209C175.651 16.5821 175.029 16.7127 174.323 16.7127H171.198V10.1828ZM174.232 14.9963C174.691 14.9963 175.056 14.8626 175.328 14.5952C175.606 14.3215 175.744 13.9391 175.744 13.4478C175.744 12.9565 175.606 12.5771 175.328 12.3097C175.056 12.0361 174.691 11.8993 174.232 11.8993H173.335V14.9963H174.232Z" fill="white"/>
  <path d="M19.4118 32.1618L10.8824 22.1197H4.91597V32.1618H0V2.75H13.7815C16.9188 2.75 19.4398 3.64636 21.3445 5.43907C23.2493 7.20378 24.2017 9.54272 24.2017 12.4559C24.2017 14.8929 23.5154 16.9377 22.1429 18.5903C20.7983 20.243 18.9496 21.3214 16.5966 21.8256L25.5462 32.1618H19.4118ZM19.3277 12.4559C19.3277 10.8592 18.8235 9.59874 17.8151 8.67437C16.8347 7.75 15.4762 7.28781 13.7395 7.28781H4.87395V17.6239H13.7395C15.4762 17.6239 16.8347 17.1758 17.8151 16.2794C18.8235 15.355 19.3277 14.0805 19.3277 12.4559Z" fill="#11191F"/>
  <path d="M37.8703 10.9853C41.5117 10.9853 44.2848 12.1057 46.1896 14.3466C48.0944 16.5875 48.8787 19.6548 48.5425 23.5483H31.9459C32.142 25.0609 32.8283 26.2654 34.0047 27.1618C35.1812 28.0581 36.6798 28.5063 38.5005 28.5063C39.677 28.5063 40.8114 28.3102 41.9039 27.9181C42.9963 27.5259 43.8507 27.0077 44.4669 26.3634L47.3241 29.1366C46.2876 30.257 44.9711 31.1394 43.3745 31.7836C41.8058 32.4279 40.1392 32.75 38.3745 32.75C34.9571 32.75 32.226 31.7556 30.1812 29.7668C28.1364 27.778 27.114 25.1169 27.114 21.7836C27.114 18.5623 28.0944 15.9573 30.0551 13.9685C32.0439 11.9797 34.649 10.9853 37.8703 10.9853ZM37.9963 15.0609C36.3717 15.0609 35.0411 15.4811 34.0047 16.3214C32.9683 17.1618 32.296 18.3522 31.9879 19.8929H44.0467C43.8787 18.4083 43.2484 17.2318 42.156 16.3634C41.0916 15.4951 39.705 15.0609 37.9963 15.0609Z" fill="#11191F"/>
  <path d="M77.3273 10.9853C80.0164 10.9853 82.1313 11.7976 83.6719 13.4223C85.2125 15.0189 85.9828 17.2178 85.9828 20.0189V32.1618H81.2769V20.3971C81.2769 18.7444 80.8988 17.4699 80.1425 16.5735C79.4142 15.6772 78.3497 15.229 76.9492 15.229C75.4086 15.229 74.1621 15.7332 73.2097 16.7416C72.2573 17.722 71.7811 19.0245 71.7811 20.6492V32.1618H67.0752V20.3971C67.0752 18.7444 66.6971 17.4699 65.9408 16.5735C65.1845 15.6772 64.106 15.229 62.7055 15.229C61.1649 15.229 59.9184 15.7332 58.966 16.7416C58.0136 17.722 57.5374 19.0245 57.5374 20.6492V32.1618H52.8315V11.4055H57.0332L57.0752 13.8424C58.5598 11.9377 60.6046 10.9853 63.2097 10.9853C64.6663 10.9853 65.9828 11.3074 67.1593 11.9517C68.3637 12.5959 69.2881 13.4923 69.9324 14.6408C71.585 12.2038 74.05 10.9853 77.3273 10.9853Z" fill="#11191F"/>
  <path d="M101.15 32.6239C97.8162 32.6239 95.1271 31.6155 93.0823 29.5987C91.0655 27.5539 90.0571 24.9489 90.0571 21.7836C90.0571 18.6183 91.0655 16.0273 93.0823 14.0105C95.1271 11.9657 97.8162 10.9433 101.15 10.9433C104.455 10.9433 107.116 11.9657 109.133 14.0105C111.178 16.0273 112.2 18.6183 112.2 21.7836C112.2 24.9489 111.178 27.5539 109.133 29.5987C107.116 31.6155 104.455 32.6239 101.15 32.6239ZM101.15 28.3382C103.026 28.3382 104.553 27.708 105.729 26.4475C106.906 25.187 107.494 23.6323 107.494 21.7836C107.494 19.9349 106.906 18.3802 105.729 17.1197C104.553 15.8592 103.026 15.229 101.15 15.229C99.2448 15.229 97.7042 15.8592 96.5277 17.1197C95.3512 18.3802 94.763 19.9349 94.763 21.7836C94.763 23.6323 95.3512 25.187 96.5277 26.4475C97.7042 27.708 99.2448 28.3382 101.15 28.3382Z" fill="#11191F"/>
  <path d="M127.983 10.9853C130.672 10.9853 132.815 11.8676 134.411 13.6324C136.036 15.3971 136.848 17.75 136.848 20.6912V32.1618H132.143V20.9853C132.143 19.1646 131.694 17.75 130.798 16.7416C129.902 15.7332 128.669 15.229 127.101 15.229C125.392 15.229 123.991 15.8032 122.899 16.9517C121.806 18.0721 121.26 19.5007 121.26 21.2374V32.1618H116.554V11.4055H120.756L120.798 14.1366C122.563 12.0357 124.958 10.9853 127.983 10.9853Z" fill="#11191F"/>
  <path d="M154.349 27.666L155.652 31.4475C154.139 32.1197 152.584 32.4559 150.988 32.4559C148.803 32.4559 147.122 31.8256 145.946 30.5651C144.769 29.3046 144.181 27.4559 144.181 25.0189V15.3971H140.273V11.4055H144.181V5.98529L148.845 5.48109V11.4055H154.811V15.3971H148.845V25.0189C148.845 27.2038 149.811 28.2962 151.744 28.2962C152.584 28.2962 153.453 28.0861 154.349 27.666Z" fill="#11191F"/>
</svg>
